<?xml version="1.0" encoding="UTF-8" standalone="no"?>
<!-- Generator: Adobe Illustrator 16.0.0, SVG Export Plug-In . SVG Version: 6.00 Build 0)  -->

<svg
   version="1.1"
   id="Capa_1"
   x="0px"
   y="0px"
   width="47.991585"
   height="41.705303"
   viewBox="0 0 47.991587 41.705304"
   xml:space="preserve"
   sodipodi:docname="simple-player.svg"
   inkscape:version="1.1.2 (0a00cf5339, 2022-02-04)"
   xmlns:inkscape="http://www.inkscape.org/namespaces/inkscape"
   xmlns:sodipodi="http://sodipodi.sourceforge.net/DTD/sodipodi-0.dtd"
   xmlns="http://www.w3.org/2000/svg"
   xmlns:svg="http://www.w3.org/2000/svg"><defs
   id="defs117" /><sodipodi:namedview
   id="namedview115"
   pagecolor="#ffffff"
   bordercolor="#666666"
   borderopacity="1.0"
   inkscape:pageshadow="2"
   inkscape:pageopacity="0.0"
   inkscape:pagecheckerboard="0"
   showgrid="false"
   inkscape:zoom="11.313708"
   inkscape:cx="34.073708"
   inkscape:cy="28.0633"
   inkscape:window-width="1850"
   inkscape:window-height="1016"
   inkscape:window-x="70"
   inkscape:window-y="27"
   inkscape:window-maximized="1"
   inkscape:current-layer="Capa_1" />
	<path
   id="path80"
   style="stroke-width:0.1"
   d="M 18.826172 0 C 18.035859 0.00328125 17.090391 0.18570314 16.775391 0.84570312 C 13.785391 1.9357031 10.884687 3.1457031 8.0546875 4.5957031 C 7.3746875 4.9457031 -0.23414062 9.0960937 0.005859375 9.4960938 C 1.1358594 11.376094 5.6646094 19.804688 6.2246094 19.804688 C 7.0146094 19.804688 8.3559375 18.355234 9.0859375 18.615234 C 9.1259375 20.295234 9.1953125 39.755 9.1953125 40.875 C 9.1953125 41.585 17.506094 41.705078 23.996094 41.705078 C 30.496094 41.705078 38.794922 41.585 38.794922 40.875 C 38.804922 39.7451 38.86615 20.295234 38.90625 18.615234 C 39.63625 18.355234 40.975625 19.804688 41.765625 19.804688 C 42.325725 19.804688 46.856328 11.376094 47.986328 9.4960938 C 48.236228 9.1060937 40.634978 4.9457031 39.955078 4.5957031 C 37.125078 3.1457031 34.216328 1.9257031 31.236328 0.84570312 C 30.816328 -0.03429687 29.284609 -0.055078125 28.474609 0.044921875 C 26.994509 0.24492188 25.485859 0.44460937 24.005859 0.47460938 C 22.525859 0.44460937 21.015156 0.24492188 19.535156 0.044921875 C 19.335156 0.017421875 19.089609 -0.00109375 18.826172 0 z " />
</svg>
